Coordinates
version=1
nRows=14
nColumns=36
inDegrees=yes

Units are S.I. units (second, meters, Newtons, ...)
If the header above contains a line with 'inDegrees', this indicates whether rotational values are in degrees (yes) or radians (no).

endheader
time	pelvis_tilt	pelvis_list	pelvis_rotation	pelvis_tx	pelvis_ty	pelvis_tz	hip_flexion_r	hip_adduction_r	hip_rotation_r	knee_angle_r	knee_angle_r_beta	ankle_angle_r	subtalar_angle_r	mtp_angle_r	hip_flexion_l	hip_adduction_l	hip_rotation_l	knee_angle_l	knee_angle_l_beta	ankle_angle_l	subtalar_angle_l	mtp_angle_l	lumbar_extension	lumbar_bending	lumbar_rotation	arm_flex_r	arm_add_r	arm_rot_r	elbow_flex_r	pro_sup_r	arm_flex_l	arm_add_l	arm_rot_l	elbow_flex_l	pro_sup_l
      3.96666670	     -8.70648649	     -5.64946667	      5.60368011	      0.58972873	      0.97679371	     -0.17823147	     29.98458592	      5.05502061	      3.41640885	     33.76966717	      0.58939188	      4.91036499	    -23.09080907	     -7.49999962	     16.39522946	      3.45155417	     12.10438988	     16.27943517	      0.28412974	      4.30550686	    -15.18530007	     -7.49999962	     -9.08378618	      3.37412602	      1.09582765	     42.44122873	     12.03921354	     70.02461574	    121.26646777	     92.44669370	     51.57235404	      1.21852451	     68.01829003	    130.68077184	     84.03295206
      3.98333330	     -8.91060411	     -5.47902637	      5.47093316	      0.58950891	      0.97680098	     -0.17760487	     30.08967991	      4.77929305	      3.32411983	     33.75558467	      0.58914609	      4.86421581	    -22.94393582	     -7.49999963	     16.37353729	      3.59917849	     11.89710767	     15.94705370	      0.27832859	      4.57167549	    -14.56991344	     -7.49999963	     -8.42067341	      3.27576917	      1.16190055	     42.18945093	     11.89811390	     69.96577659	    121.15162497	     91.25665576	     51.13509360	      1.17648106	     68.05632410	    130.63180532	     82.93931129
      4.00000000	     -8.43035623	     -5.42409249	      5.60042596	      0.58914094	      0.97783698	     -0.17796563	     29.45316949	      4.69558258	      3.29402313	     33.55520401	      0.58564879	      3.71583103	    -24.00721721	     -7.49999966	     15.66701514	      3.65910509	     12.19125315	     15.58748555	      0.27205294	      4.08881518	    -15.14483542	     -7.49999966	     -8.90496184	      3.35820542	      1.00991985	     42.87420122	     11.95975189	     70.20888994	    121.11744662	     90.08578612	     51.60741057	      1.31886183	     68.33627403	    130.28885394	     81.70247178
      4.01666670	     -8.28957379	     -5.35124670	      5.73261129	      0.59217968	      0.97883008	     -0.18016288	     29.22246850	      4.43881620	      2.96612386	     33.66059027	      0.58748813	      3.14886205	    -24.37379303	     -7.49999971	     15.26368906	      3.81171491	     12.51618919	     15.25287627	      0.26621291	      3.84282195	    -15.42005065	     -7.49999971	     -8.83788828	      3.39072073	      1.01425236	     42.82305117	     11.84642058	     69.84446750	    121.05826120	     92.97500076	     51.24033694	      1.61607450	     68.35420663	    130.21091532	     83.68424225
      4.03333330	     -8.15676398	     -5.31933513	      5.83322278	      0.59210485	      0.97877471	     -0.18044113	     29.00865258	      4.31630075	      2.92603785	     33.60524578	      0.58652218	      2.88937673	    -24.78523247	     -7.49999973	     14.97750405	      3.87645889	     12.58344771	     15.08581897	      0.26329721	      4.13130660	    -15.33618159	     -7.49999973	     -8.79222443	      3.49980687	      0.95360117	     42.89398494	     11.81439223	     69.86356381	    121.08257777	     91.38422941	     50.74011114	      1.74604267	     68.37145459	    130.37541940	     82.40261191
      4.05000000	     -8.48219674	     -5.24549616	      5.85816670	      0.59205604	      0.97845103	     -0.17999593	     29.37437272	      4.10853041	      2.81254878	     33.59418291	      0.58632910	      2.87654447	    -24.72542789	     -7.49999974	     15.13443269	      4.00170446	     12.51708846	     14.93008175	      0.26057908	      4.67915371	    -14.82715713	     -7.49999974	     -8.16026716	      3.43350613	      0.88237411	     42.44838992	     11.70987820	     69.64053882	    120.84074680	     89.85142812	     49.91280989	      1.81637044	     68.38536180	    130.47235969	     81.04111752
      4.06666670	     -7.87598425	     -5.24319290	      5.99233353	      0.59548965	      0.97949710	     -0.18264070	     28.37382037	      4.02990019	      2.69316919	     33.30632848	      0.58130509	      2.07456069	    -24.71378318	     -7.49999977	     14.19233111	      4.00592777	     12.82549703	     14.64932538	      0.25567896	      4.17278061	    -15.46557507	     -7.49999977	     -8.77066470	      3.59974716	      0.88684794	     42.62058178	     11.61349628	     69.51142155	    120.94833835	     92.88976187	     49.57120544	      2.13801355	     68.37986336	    130.44508871	     84.07183701
      4.08333330	     -7.84513489	     -5.23448047	      6.06072703	      0.59537747	      0.97963699	     -0.18223570	     28.11378628	      3.96224813	      2.58448586	     33.08020813	      0.57735855	      1.96882948	    -24.22665270	     -7.49999978	     14.05653700	      4.01846112	     12.74468021	     14.66219550	      0.25590359	      4.48930991	    -15.24177095	     -7.49999978	     -8.62783475	      3.62818772	      0.78591553	     42.23906929	     11.48261232	     69.49962247	    121.23633322	     91.91619386	     48.99307876	      2.19472494	     68.25803764	    130.54000963	     83.28661758
      4.10000000	     -7.60703617	     -5.30219754	      6.12407854	      0.59923445	      0.97839255	     -0.17974504	     27.56564653	      4.13315183	      2.57627600	     32.87548319	      0.57378542	      1.57069593	    -24.09062763	     -7.49999978	     13.47472856	      3.82929822	     12.86804129	     14.42211393	      0.25171337	      4.73663757	    -14.98316763	     -7.49999978	     -8.60626726	      3.64887019	      0.78365409	     41.90078083	     11.43176211	     69.56067800	    121.39029817	     91.19343081	     48.54304178	      2.20106275	     68.05808041	    130.54330056	     82.68693896
      4.11666670	     -7.37163261	     -5.36304783	      6.19869767	      0.59887440	      0.97886436	     -0.17953535	     27.12150673	      4.23769936	      2.49756538	     32.75266996	      0.57164193	      1.32235812	    -24.06263606	     -7.49999979	     12.98212690	      3.69895807	     12.89651146	     14.21714477	      0.24813599	      4.90871673	    -14.89445044	     -7.49999979	     -8.64622961	      3.68779903	      0.78398214	     41.74866065	     11.43523795	     69.59525257	    121.37373720	     90.71454244	     48.46812497	      2.45259072	     67.92216053	    130.29836598	     82.35524061
      4.13333330	     -7.26045779	     -5.39329721	      6.23738672	      0.59915776	      0.97713720	     -0.17974544	     27.11706229	      4.21817581	      2.19166121	     33.14569729	      0.57850155	      1.26426315	    -23.83971889	     -7.49999980	     12.80737175	      3.61101941	     12.76524827	     14.25508774	      0.24879822	      5.23883220	    -14.52738676	     -7.49999980	     -8.63065773	      3.65720716	      0.76684422	     41.64844272	     11.50144433	     69.57099688	    121.71188259	     89.34330052	     48.49522291	      2.49137851	     67.66613321	    130.45077183	     81.38858456
      4.15000000	     -7.16620943	     -5.41949114	      6.27007594	      0.59892458	      0.97798984	     -0.17943360	     27.12336382	      4.25650634	      2.04579610	     33.45675597	      0.58393055	      0.76496345	    -24.06345890	     -7.49999981	     12.67380108	      3.58143038	     13.02009693	     14.20806960	      0.24797759	      4.99596544	    -15.15006110	     -7.49999981	     -8.55813371	      3.64762499	      0.91195128	     41.54208367	     11.46943469	     69.46833517	    121.50353820	     89.45907307	     48.44007026	      2.48482058	     67.44986186	    130.18827912	     81.63441983
      4.16666670	     -7.12201301	     -5.51316597	      6.22963464	      0.59870515	      0.97815065	     -0.17980741	     27.12361376	      4.35753652	      1.95365639	     33.56162128	      0.58576079	      0.20352893	    -24.32171862	     -7.49999981	     12.71176644	      3.50640034	     13.07035176	     14.28330733	      0.24929074	      4.82954452	    -15.02176399	     -7.49999981	     -8.63551446	      3.72125703	      0.91519503	     41.56317455	     11.49267936	     69.56663763	    121.62602133	     89.54147193	     48.55675130	      2.54939886	     67.14235389	    129.91198362	     81.73000699
      4.18333330	     -7.24537946	     -5.59891523	      6.10254416	      0.59865498	      0.97843166	     -0.17940787	     27.46775708	      4.43540965	      1.78700433	     33.68856931	      0.58797645	     -0.05589312	    -24.40369663	     -7.49999983	     12.88640508	      3.45407074	     13.17919841	     14.30962707	      0.24975011	      4.26794685	    -15.22516052	     -7.49999983	     -8.55942649	      3.80609100	      1.03293080	     41.48576606	     11.54350596	     69.28172001	    121.33281106	     92.72233789	     48.44625870	      2.47400829	     66.73855617	    129.73605085	     84.65723187
